<mxfile host="Electron" modified="2024-01-02T06:16:07.511Z" agent="Mozilla/5.0 (Windows NT 10.0; Win64; x64) AppleWebKit/537.36 (KHTML, like Gecko) draw.io/22.1.16 Chrome/120.0.6099.109 Electron/28.1.0 Safari/537.36" etag="0srHxnR6oEy3vkeDdRkD" version="22.1.16" type="device">
  <diagram name="第 1 页" id="5xo9MuGJMNsftpNXZvpK">
    <mxGraphModel dx="1050" dy="629" grid="1" gridSize="10" guides="1" tooltips="1" connect="1" arrows="1" fold="1" page="1" pageScale="1" pageWidth="827" pageHeight="1169" math="0" shadow="0">
      <root>
        <mxCell id="0" />
        <mxCell id="1" parent="0" />
        <mxCell id="jCFXRqAsLoj5g67LPxBL-25" value="" style="group" parent="1" vertex="1" connectable="0">
          <mxGeometry x="180" y="500" width="500" height="48" as="geometry" />
        </mxCell>
        <mxCell id="jCFXRqAsLoj5g67LPxBL-26" value="" style="endArrow=classic;html=1;rounded=0;" parent="jCFXRqAsLoj5g67LPxBL-25" edge="1">
          <mxGeometry width="50" height="50" relative="1" as="geometry">
            <mxPoint x="20" y="20" as="sourcePoint" />
            <mxPoint x="500" y="20" as="targetPoint" />
          </mxGeometry>
        </mxCell>
        <mxCell id="jCFXRqAsLoj5g67LPxBL-27" value="" style="endArrow=none;html=1;rounded=0;" parent="jCFXRqAsLoj5g67LPxBL-25" edge="1">
          <mxGeometry width="50" height="50" relative="1" as="geometry">
            <mxPoint x="20" y="20" as="sourcePoint" />
            <mxPoint x="20" as="targetPoint" />
          </mxGeometry>
        </mxCell>
        <mxCell id="jCFXRqAsLoj5g67LPxBL-28" value="" style="endArrow=none;html=1;rounded=0;" parent="jCFXRqAsLoj5g67LPxBL-25" edge="1">
          <mxGeometry width="50" height="50" relative="1" as="geometry">
            <mxPoint x="60" y="20" as="sourcePoint" />
            <mxPoint x="60" y="10" as="targetPoint" />
          </mxGeometry>
        </mxCell>
        <mxCell id="jCFXRqAsLoj5g67LPxBL-29" value="" style="endArrow=none;html=1;rounded=0;" parent="jCFXRqAsLoj5g67LPxBL-25" edge="1">
          <mxGeometry width="50" height="50" relative="1" as="geometry">
            <mxPoint x="100" y="20" as="sourcePoint" />
            <mxPoint x="100" as="targetPoint" />
          </mxGeometry>
        </mxCell>
        <mxCell id="jCFXRqAsLoj5g67LPxBL-30" value="" style="endArrow=none;html=1;rounded=0;" parent="jCFXRqAsLoj5g67LPxBL-25" edge="1">
          <mxGeometry width="50" height="50" relative="1" as="geometry">
            <mxPoint x="140" y="20" as="sourcePoint" />
            <mxPoint x="140" y="10" as="targetPoint" />
          </mxGeometry>
        </mxCell>
        <mxCell id="jCFXRqAsLoj5g67LPxBL-31" value="" style="endArrow=none;html=1;rounded=0;" parent="jCFXRqAsLoj5g67LPxBL-25" edge="1">
          <mxGeometry width="50" height="50" relative="1" as="geometry">
            <mxPoint x="180" y="20" as="sourcePoint" />
            <mxPoint x="180" as="targetPoint" />
          </mxGeometry>
        </mxCell>
        <mxCell id="jCFXRqAsLoj5g67LPxBL-32" value="" style="endArrow=none;html=1;rounded=0;" parent="jCFXRqAsLoj5g67LPxBL-25" edge="1">
          <mxGeometry width="50" height="50" relative="1" as="geometry">
            <mxPoint x="220" y="20" as="sourcePoint" />
            <mxPoint x="220" y="10" as="targetPoint" />
          </mxGeometry>
        </mxCell>
        <mxCell id="jCFXRqAsLoj5g67LPxBL-33" value="" style="endArrow=none;html=1;rounded=0;" parent="jCFXRqAsLoj5g67LPxBL-25" edge="1">
          <mxGeometry width="50" height="50" relative="1" as="geometry">
            <mxPoint x="260" y="20" as="sourcePoint" />
            <mxPoint x="260" as="targetPoint" />
          </mxGeometry>
        </mxCell>
        <mxCell id="jCFXRqAsLoj5g67LPxBL-34" value="" style="endArrow=none;html=1;rounded=0;" parent="jCFXRqAsLoj5g67LPxBL-25" edge="1">
          <mxGeometry width="50" height="50" relative="1" as="geometry">
            <mxPoint x="300" y="20" as="sourcePoint" />
            <mxPoint x="300" y="10" as="targetPoint" />
          </mxGeometry>
        </mxCell>
        <mxCell id="jCFXRqAsLoj5g67LPxBL-35" value="" style="endArrow=none;html=1;rounded=0;" parent="jCFXRqAsLoj5g67LPxBL-25" edge="1">
          <mxGeometry width="50" height="50" relative="1" as="geometry">
            <mxPoint x="340" y="20" as="sourcePoint" />
            <mxPoint x="340" as="targetPoint" />
          </mxGeometry>
        </mxCell>
        <mxCell id="jCFXRqAsLoj5g67LPxBL-36" value="0s" style="text;html=1;align=center;verticalAlign=middle;resizable=0;points=[];autosize=1;strokeColor=none;fillColor=none;" parent="jCFXRqAsLoj5g67LPxBL-25" vertex="1">
          <mxGeometry y="18" width="40" height="30" as="geometry" />
        </mxCell>
        <mxCell id="jCFXRqAsLoj5g67LPxBL-37" value="10s" style="text;html=1;align=center;verticalAlign=middle;resizable=0;points=[];autosize=1;strokeColor=none;fillColor=none;" parent="jCFXRqAsLoj5g67LPxBL-25" vertex="1">
          <mxGeometry x="80" y="18" width="40" height="30" as="geometry" />
        </mxCell>
        <mxCell id="jCFXRqAsLoj5g67LPxBL-38" value="20s" style="text;html=1;align=center;verticalAlign=middle;resizable=0;points=[];autosize=1;strokeColor=none;fillColor=none;" parent="jCFXRqAsLoj5g67LPxBL-25" vertex="1">
          <mxGeometry x="160" y="18" width="40" height="30" as="geometry" />
        </mxCell>
        <mxCell id="jCFXRqAsLoj5g67LPxBL-39" value="30s" style="text;html=1;align=center;verticalAlign=middle;resizable=0;points=[];autosize=1;strokeColor=none;fillColor=none;" parent="jCFXRqAsLoj5g67LPxBL-25" vertex="1">
          <mxGeometry x="240" y="18" width="40" height="30" as="geometry" />
        </mxCell>
        <mxCell id="jCFXRqAsLoj5g67LPxBL-40" value="40s" style="text;html=1;align=center;verticalAlign=middle;resizable=0;points=[];autosize=1;strokeColor=none;fillColor=none;" parent="jCFXRqAsLoj5g67LPxBL-25" vertex="1">
          <mxGeometry x="320" y="18" width="40" height="30" as="geometry" />
        </mxCell>
        <mxCell id="jCFXRqAsLoj5g67LPxBL-41" value="" style="endArrow=none;html=1;rounded=0;" parent="jCFXRqAsLoj5g67LPxBL-25" edge="1">
          <mxGeometry width="50" height="50" relative="1" as="geometry">
            <mxPoint x="380" y="20" as="sourcePoint" />
            <mxPoint x="380" y="10" as="targetPoint" />
          </mxGeometry>
        </mxCell>
        <mxCell id="jCFXRqAsLoj5g67LPxBL-42" value="" style="endArrow=none;html=1;rounded=0;" parent="jCFXRqAsLoj5g67LPxBL-25" edge="1">
          <mxGeometry width="50" height="50" relative="1" as="geometry">
            <mxPoint x="420" y="20" as="sourcePoint" />
            <mxPoint x="420" as="targetPoint" />
          </mxGeometry>
        </mxCell>
        <mxCell id="jCFXRqAsLoj5g67LPxBL-43" value="50s" style="text;html=1;align=center;verticalAlign=middle;resizable=0;points=[];autosize=1;strokeColor=none;fillColor=none;" parent="jCFXRqAsLoj5g67LPxBL-25" vertex="1">
          <mxGeometry x="400" y="18" width="40" height="30" as="geometry" />
        </mxCell>
        <mxCell id="jCFXRqAsLoj5g67LPxBL-44" value="1s" style="rounded=0;whiteSpace=wrap;html=1;fillColor=#f9f7ed;strokeColor=#36393d;" parent="1" vertex="1">
          <mxGeometry x="200" y="460" width="10" height="20" as="geometry" />
        </mxCell>
        <mxCell id="jCFXRqAsLoj5g67LPxBL-45" value="21s" style="rounded=0;whiteSpace=wrap;html=1;fillColor=#f9f7ed;strokeColor=#36393d;" parent="1" vertex="1">
          <mxGeometry x="290" y="460" width="170" height="20" as="geometry" />
        </mxCell>
        <mxCell id="jCFXRqAsLoj5g67LPxBL-46" value="3s" style="rounded=0;whiteSpace=wrap;html=1;fillColor=#f9f7ed;strokeColor=#36393d;" parent="1" vertex="1">
          <mxGeometry x="540" y="460" width="20" height="20" as="geometry" />
        </mxCell>
        <mxCell id="jCFXRqAsLoj5g67LPxBL-47" value="5s" style="rounded=0;whiteSpace=wrap;html=1;fillColor=#f9f7ed;strokeColor=#36393d;" parent="1" vertex="1">
          <mxGeometry x="640" y="460" width="40" height="20" as="geometry" />
        </mxCell>
        <mxCell id="jCFXRqAsLoj5g67LPxBL-48" value="1s" style="rounded=0;whiteSpace=wrap;html=1;fillColor=#f9f7ed;strokeColor=#36393d;" parent="1" vertex="1">
          <mxGeometry x="760" y="460" width="10" height="20" as="geometry" />
        </mxCell>
        <mxCell id="jCFXRqAsLoj5g67LPxBL-49" value="" style="shape=curlyBracket;whiteSpace=wrap;html=1;rounded=1;labelPosition=left;verticalLabelPosition=middle;align=right;verticalAlign=middle;direction=south;" parent="1" vertex="1">
          <mxGeometry x="210" y="440" width="80" height="20" as="geometry" />
        </mxCell>
        <mxCell id="jCFXRqAsLoj5g67LPxBL-50" value="间隔10s" style="text;html=1;align=center;verticalAlign=middle;resizable=0;points=[];autosize=1;strokeColor=none;fillColor=none;fontColor=#FF0000;fontStyle=1" parent="1" vertex="1">
          <mxGeometry x="215" y="420" width="70" height="30" as="geometry" />
        </mxCell>
        <mxCell id="jCFXRqAsLoj5g67LPxBL-53" value="" style="group" parent="1" vertex="1" connectable="0">
          <mxGeometry x="180" y="650" width="500" height="58" as="geometry" />
        </mxCell>
        <mxCell id="jCFXRqAsLoj5g67LPxBL-54" value="0s" style="text;html=1;align=center;verticalAlign=middle;resizable=0;points=[];autosize=1;strokeColor=none;fillColor=none;" parent="jCFXRqAsLoj5g67LPxBL-53" vertex="1">
          <mxGeometry y="28" width="40" height="30" as="geometry" />
        </mxCell>
        <mxCell id="jCFXRqAsLoj5g67LPxBL-55" value="" style="endArrow=classic;html=1;rounded=0;" parent="jCFXRqAsLoj5g67LPxBL-53" edge="1">
          <mxGeometry width="50" height="50" relative="1" as="geometry">
            <mxPoint x="20" y="30" as="sourcePoint" />
            <mxPoint x="500" y="30" as="targetPoint" />
          </mxGeometry>
        </mxCell>
        <mxCell id="jCFXRqAsLoj5g67LPxBL-56" value="" style="endArrow=none;html=1;rounded=0;" parent="jCFXRqAsLoj5g67LPxBL-53" edge="1">
          <mxGeometry width="50" height="50" relative="1" as="geometry">
            <mxPoint x="20" y="30" as="sourcePoint" />
            <mxPoint x="20" y="10" as="targetPoint" />
          </mxGeometry>
        </mxCell>
        <mxCell id="jCFXRqAsLoj5g67LPxBL-57" value="" style="endArrow=none;html=1;rounded=0;" parent="jCFXRqAsLoj5g67LPxBL-53" edge="1">
          <mxGeometry width="50" height="50" relative="1" as="geometry">
            <mxPoint x="60" y="30" as="sourcePoint" />
            <mxPoint x="60" y="20" as="targetPoint" />
          </mxGeometry>
        </mxCell>
        <mxCell id="jCFXRqAsLoj5g67LPxBL-58" value="" style="endArrow=none;html=1;rounded=0;" parent="jCFXRqAsLoj5g67LPxBL-53" edge="1">
          <mxGeometry width="50" height="50" relative="1" as="geometry">
            <mxPoint x="100" y="30" as="sourcePoint" />
            <mxPoint x="100" y="10" as="targetPoint" />
          </mxGeometry>
        </mxCell>
        <mxCell id="jCFXRqAsLoj5g67LPxBL-59" value="" style="endArrow=none;html=1;rounded=0;" parent="jCFXRqAsLoj5g67LPxBL-53" edge="1">
          <mxGeometry width="50" height="50" relative="1" as="geometry">
            <mxPoint x="140" y="30" as="sourcePoint" />
            <mxPoint x="140" y="20" as="targetPoint" />
          </mxGeometry>
        </mxCell>
        <mxCell id="jCFXRqAsLoj5g67LPxBL-60" value="" style="endArrow=none;html=1;rounded=0;" parent="jCFXRqAsLoj5g67LPxBL-53" edge="1">
          <mxGeometry width="50" height="50" relative="1" as="geometry">
            <mxPoint x="180" y="30" as="sourcePoint" />
            <mxPoint x="180" y="10" as="targetPoint" />
          </mxGeometry>
        </mxCell>
        <mxCell id="jCFXRqAsLoj5g67LPxBL-61" value="" style="endArrow=none;html=1;rounded=0;" parent="jCFXRqAsLoj5g67LPxBL-53" edge="1">
          <mxGeometry width="50" height="50" relative="1" as="geometry">
            <mxPoint x="220" y="30" as="sourcePoint" />
            <mxPoint x="220" y="20" as="targetPoint" />
          </mxGeometry>
        </mxCell>
        <mxCell id="jCFXRqAsLoj5g67LPxBL-62" value="" style="endArrow=none;html=1;rounded=0;" parent="jCFXRqAsLoj5g67LPxBL-53" edge="1">
          <mxGeometry width="50" height="50" relative="1" as="geometry">
            <mxPoint x="260" y="30" as="sourcePoint" />
            <mxPoint x="260" y="10" as="targetPoint" />
          </mxGeometry>
        </mxCell>
        <mxCell id="jCFXRqAsLoj5g67LPxBL-63" value="" style="endArrow=none;html=1;rounded=0;" parent="jCFXRqAsLoj5g67LPxBL-53" edge="1">
          <mxGeometry width="50" height="50" relative="1" as="geometry">
            <mxPoint x="300" y="30" as="sourcePoint" />
            <mxPoint x="300" y="20" as="targetPoint" />
          </mxGeometry>
        </mxCell>
        <mxCell id="jCFXRqAsLoj5g67LPxBL-64" value="" style="endArrow=none;html=1;rounded=0;" parent="jCFXRqAsLoj5g67LPxBL-53" edge="1">
          <mxGeometry width="50" height="50" relative="1" as="geometry">
            <mxPoint x="340" y="30" as="sourcePoint" />
            <mxPoint x="340" y="10" as="targetPoint" />
          </mxGeometry>
        </mxCell>
        <mxCell id="jCFXRqAsLoj5g67LPxBL-65" value="10s" style="text;html=1;align=center;verticalAlign=middle;resizable=0;points=[];autosize=1;strokeColor=none;fillColor=none;" parent="jCFXRqAsLoj5g67LPxBL-53" vertex="1">
          <mxGeometry x="80" y="28" width="40" height="30" as="geometry" />
        </mxCell>
        <mxCell id="jCFXRqAsLoj5g67LPxBL-66" value="20s" style="text;html=1;align=center;verticalAlign=middle;resizable=0;points=[];autosize=1;strokeColor=none;fillColor=none;" parent="jCFXRqAsLoj5g67LPxBL-53" vertex="1">
          <mxGeometry x="160" y="28" width="40" height="30" as="geometry" />
        </mxCell>
        <mxCell id="jCFXRqAsLoj5g67LPxBL-67" value="30s" style="text;html=1;align=center;verticalAlign=middle;resizable=0;points=[];autosize=1;strokeColor=none;fillColor=none;" parent="jCFXRqAsLoj5g67LPxBL-53" vertex="1">
          <mxGeometry x="240" y="28" width="40" height="30" as="geometry" />
        </mxCell>
        <mxCell id="jCFXRqAsLoj5g67LPxBL-68" value="40s" style="text;html=1;align=center;verticalAlign=middle;resizable=0;points=[];autosize=1;strokeColor=none;fillColor=none;" parent="jCFXRqAsLoj5g67LPxBL-53" vertex="1">
          <mxGeometry x="320" y="28" width="40" height="30" as="geometry" />
        </mxCell>
        <mxCell id="jCFXRqAsLoj5g67LPxBL-69" value="" style="endArrow=none;html=1;rounded=0;" parent="jCFXRqAsLoj5g67LPxBL-53" edge="1">
          <mxGeometry width="50" height="50" relative="1" as="geometry">
            <mxPoint x="380" y="30" as="sourcePoint" />
            <mxPoint x="380" y="20" as="targetPoint" />
          </mxGeometry>
        </mxCell>
        <mxCell id="jCFXRqAsLoj5g67LPxBL-70" value="" style="endArrow=none;html=1;rounded=0;" parent="jCFXRqAsLoj5g67LPxBL-53" edge="1">
          <mxGeometry width="50" height="50" relative="1" as="geometry">
            <mxPoint x="420" y="30" as="sourcePoint" />
            <mxPoint x="420" y="10" as="targetPoint" />
          </mxGeometry>
        </mxCell>
        <mxCell id="jCFXRqAsLoj5g67LPxBL-71" value="50s" style="text;html=1;align=center;verticalAlign=middle;resizable=0;points=[];autosize=1;strokeColor=none;fillColor=none;" parent="jCFXRqAsLoj5g67LPxBL-53" vertex="1">
          <mxGeometry x="400" y="28" width="40" height="30" as="geometry" />
        </mxCell>
        <mxCell id="jCFXRqAsLoj5g67LPxBL-72" value="1s" style="rounded=0;whiteSpace=wrap;html=1;fillColor=#f9f7ed;strokeColor=#36393d;" parent="jCFXRqAsLoj5g67LPxBL-53" vertex="1">
          <mxGeometry x="20" y="-30" width="10" height="20" as="geometry" />
        </mxCell>
        <mxCell id="jCFXRqAsLoj5g67LPxBL-73" value="21s" style="rounded=0;whiteSpace=wrap;html=1;fillColor=#f9f7ed;strokeColor=#36393d;" parent="jCFXRqAsLoj5g67LPxBL-53" vertex="1">
          <mxGeometry x="100" y="-30" width="170" height="20" as="geometry" />
        </mxCell>
        <mxCell id="jCFXRqAsLoj5g67LPxBL-74" value="3s" style="rounded=0;whiteSpace=wrap;html=1;fillColor=#f9f7ed;strokeColor=#36393d;" parent="jCFXRqAsLoj5g67LPxBL-53" vertex="1">
          <mxGeometry x="270" y="-30" width="20" height="20" as="geometry" />
        </mxCell>
        <mxCell id="jCFXRqAsLoj5g67LPxBL-75" value="5s" style="rounded=0;whiteSpace=wrap;html=1;fillColor=#f9f7ed;strokeColor=#36393d;" parent="jCFXRqAsLoj5g67LPxBL-53" vertex="1">
          <mxGeometry x="290" y="-30" width="40" height="20" as="geometry" />
        </mxCell>
        <mxCell id="jCFXRqAsLoj5g67LPxBL-76" value="1s" style="rounded=0;whiteSpace=wrap;html=1;fillColor=#f9f7ed;strokeColor=#36393d;" parent="jCFXRqAsLoj5g67LPxBL-53" vertex="1">
          <mxGeometry x="340" y="-30" width="10" height="20" as="geometry" />
        </mxCell>
        <mxCell id="jCFXRqAsLoj5g67LPxBL-77" value="scheduleWithFixedDelay(task, now, 10s, SECONDS)" style="text;html=1;align=center;verticalAlign=middle;resizable=0;points=[];autosize=1;strokeColor=none;fillColor=none;fontSize=16;fontStyle=1" parent="1" vertex="1">
          <mxGeometry x="230" y="548" width="420" height="30" as="geometry" />
        </mxCell>
        <mxCell id="jCFXRqAsLoj5g67LPxBL-78" value="scheduleAtFixedRate(task, now, 10s, SECONDS)" style="text;html=1;align=center;verticalAlign=middle;resizable=0;points=[];autosize=1;strokeColor=none;fillColor=none;fontSize=16;fontStyle=1" parent="1" vertex="1">
          <mxGeometry x="245" y="708" width="390" height="30" as="geometry" />
        </mxCell>
        <mxCell id="jCFXRqAsLoj5g67LPxBL-80" value="" style="shape=curlyBracket;whiteSpace=wrap;html=1;rounded=1;labelPosition=left;verticalLabelPosition=middle;align=right;verticalAlign=middle;direction=south;" parent="1" vertex="1">
          <mxGeometry x="460" y="440" width="80" height="20" as="geometry" />
        </mxCell>
        <mxCell id="jCFXRqAsLoj5g67LPxBL-81" value="间隔10s" style="text;html=1;align=center;verticalAlign=middle;resizable=0;points=[];autosize=1;strokeColor=none;fillColor=none;fontColor=#FF0000;fontStyle=1" parent="1" vertex="1">
          <mxGeometry x="470" y="420" width="70" height="30" as="geometry" />
        </mxCell>
        <mxCell id="jCFXRqAsLoj5g67LPxBL-82" value="" style="shape=curlyBracket;whiteSpace=wrap;html=1;rounded=1;labelPosition=left;verticalLabelPosition=middle;align=right;verticalAlign=middle;direction=south;" parent="1" vertex="1">
          <mxGeometry x="560" y="440" width="80" height="20" as="geometry" />
        </mxCell>
        <mxCell id="jCFXRqAsLoj5g67LPxBL-83" value="间隔10s" style="text;html=1;align=center;verticalAlign=middle;resizable=0;points=[];autosize=1;strokeColor=none;fillColor=none;fontColor=#FF0000;fontStyle=1" parent="1" vertex="1">
          <mxGeometry x="570" y="420" width="70" height="30" as="geometry" />
        </mxCell>
        <mxCell id="jCFXRqAsLoj5g67LPxBL-84" value="" style="shape=curlyBracket;whiteSpace=wrap;html=1;rounded=1;labelPosition=left;verticalLabelPosition=middle;align=right;verticalAlign=middle;direction=south;" parent="1" vertex="1">
          <mxGeometry x="680" y="440" width="80" height="20" as="geometry" />
        </mxCell>
        <mxCell id="jCFXRqAsLoj5g67LPxBL-85" value="间隔10s" style="text;html=1;align=center;verticalAlign=middle;resizable=0;points=[];autosize=1;strokeColor=none;fillColor=none;fontColor=#FF0000;fontStyle=1" parent="1" vertex="1">
          <mxGeometry x="690" y="420" width="70" height="30" as="geometry" />
        </mxCell>
        <mxCell id="F4AA6QbHFkdzGXNcVOiv-1" value="nxt" style="text;html=1;align=center;verticalAlign=middle;resizable=0;points=[];autosize=1;strokeColor=none;fillColor=none;fontColor=#FFFFFF;" parent="1" vertex="1">
          <mxGeometry x="160" y="400" width="40" height="30" as="geometry" />
        </mxCell>
        <mxCell id="F4AA6QbHFkdzGXNcVOiv-2" value="nxt" style="text;html=1;align=center;verticalAlign=middle;resizable=0;points=[];autosize=1;strokeColor=none;fillColor=none;fontColor=#FFFFFF;" parent="1" vertex="1">
          <mxGeometry x="750" y="708" width="40" height="30" as="geometry" />
        </mxCell>
      </root>
    </mxGraphModel>
  </diagram>
</mxfile>
